<?xml version="1.0" standalone="no"?>
<!DOCTYPE svg PUBLIC "-//W3C//DTD SVG 20010904//EN"
 "http://www.w3.org/TR/2001/REC-SVG-20010904/DTD/svg10.dtd">
<svg version="1.0" xmlns="http://www.w3.org/2000/svg"
 width="500.000000pt" height="500.000000pt" viewBox="0 0 500.000000 500.000000"
 preserveAspectRatio="xMidYMid meet">
<metadata>
Created by potrace 1.11, written by Peter Selinger 2001-2013
</metadata>
<g transform="translate(0.000000,500.000000) scale(0.100000,-0.100000)"
fill="#000000" stroke="none">
<path d="M2502 3169 c-35 -33 -67 -57 -73 -54 -5 4 -8 1 -7 -7 2 -7 -4 -12
-12 -10 -8 2 -12 0 -8 -4 12 -11 -12 -34 -36 -34 -28 0 -46 -18 -46 -45 0 -12
-26 -47 -64 -84 -36 -35 -67 -75 -71 -88 -10 -43 15 -143 49 -198 39 -60 120
-118 189 -136 109 -27 224 7 308 91 117 117 119 316 3 435 -44 46 -131 95
-168 95 -17 0 -16 4 9 30 23 24 27 34 19 47 -6 9 -15 18 -20 20 -5 1 -37 -25
-72 -58z m56 1 c-12 -16 -29 -30 -37 -30 -10 0 -6 9 14 30 16 17 33 30 37 30
5 0 -1 -13 -14 -30z m-88 -374 c0 -106 4 -177 10 -181 7 -4 10 57 10 174 0
114 4 181 10 181 6 0 10 -66 10 -179 0 -199 3 -191 -71 -191 -23 0 -41 5 -44
13 -2 6 -9 73 -15 147 -6 74 -13 152 -16 173 l-6 37 56 0 56 0 0 -174z m160
147 c0 -16 -5 -97 -12 -180 l-12 -153 -38 0 -38 0 0 180 0 180 50 0 c48 0 50
-1 50 -27z"/>
<path d="M3460 2379 l0 -90 -22 15 c-29 20 -87 20 -116 0 -71 -49 -67 -170 8
-209 37 -19 63 -19 100 0 17 9 30 11 30 5 0 -5 9 -10 20 -10 19 0 20 7 20 190
0 183 -1 190 -20 190 -19 0 -20 -7 -20 -91z m-25 -124 c41 -41 30 -104 -22
-123 -79 -27 -133 68 -73 128 27 27 66 25 95 -5z"/>
<path d="M1210 2420 c0 -17 7 -20 45 -20 l45 0 0 -155 c0 -148 1 -155 20 -155
19 0 20 7 20 155 l0 155 40 0 c33 0 40 3 40 20 0 19 -7 20 -105 20 -98 0 -105
-1 -105 -20z"/>
<path d="M2725 2426 c-39 -17 -80 -65 -95 -112 -27 -80 17 -180 93 -215 53
-23 91 -24 142 0 39 17 95 72 95 92 0 21 -40 7 -73 -26 -30 -30 -42 -35 -82
-35 -85 0 -135 50 -135 136 0 120 139 176 220 89 13 -14 34 -25 47 -25 l24 0
-18 31 c-39 67 -143 98 -218 65z"/>
<path d="M1464 2386 c-8 -21 3 -36 27 -36 15 0 20 6 17 22 -4 27 -35 37 -44
14z"/>
<path d="M1610 2360 c0 -38 -2 -40 -30 -40 -23 0 -30 -4 -30 -20 0 -16 7 -20
30 -20 l30 0 0 -95 c0 -88 1 -95 20 -95 19 0 20 7 20 95 l0 95 31 0 c24 0 30
4 27 18 -2 10 -14 18 -31 20 -24 3 -27 7 -27 43 0 32 -3 39 -20 39 -17 0 -20
-7 -20 -40z"/>
<path d="M2220 2360 c0 -36 -2 -40 -25 -40 -18 0 -25 -5 -25 -20 0 -15 7 -20
25 -20 25 0 25 0 25 -95 0 -95 0 -95 25 -95 25 0 25 0 25 95 0 95 0 95 25 95
18 0 25 5 25 20 0 15 -7 20 -25 20 -22 0 -25 4 -25 40 0 36 -2 40 -25 40 -22
0 -25 -4 -25 -40z"/>
<path d="M1470 2205 c0 -108 1 -115 20 -115 19 0 20 7 20 115 0 108 -1 115
-20 115 -19 0 -20 -7 -20 -115z"/>
<path d="M1750 2205 c0 -108 1 -115 20 -115 18 0 20 7 20 68 0 77 17 112 56
112 19 0 24 5 24 25 0 28 -25 34 -61 15 -13 -7 -19 -7 -19 0 0 5 -9 10 -20 10
-19 0 -20 -7 -20 -115z"/>
<path d="M1942 2304 c-71 -49 -67 -170 8 -209 37 -19 63 -19 100 0 17 9 30 11
30 5 0 -5 9 -10 20 -10 19 0 20 7 20 115 0 108 -1 115 -20 115 -11 0 -20 -7
-20 -16 0 -14 -2 -14 -22 0 -29 20 -87 20 -116 0z m113 -49 c41 -41 30 -104
-22 -123 -79 -27 -133 68 -73 128 27 27 66 25 95 -5z"/>
<path d="M2395 2298 c-100 -79 -33 -237 91 -213 32 6 84 46 84 65 0 15 -46 12
-60 -5 -19 -23 -76 -19 -102 8 l-23 22 98 3 97 3 0 35 c0 28 -8 44 -34 70 -29
29 -41 34 -79 34 -30 0 -53 -7 -72 -22z m123 -45 l27 -28 -43 -3 c-23 -2 -59
-2 -80 0 l-37 3 27 28 c16 15 38 27 53 27 15 0 37 -12 53 -27z"/>
<path d="M3048 2304 c-35 -18 -58 -62 -58 -110 0 -28 8 -44 33 -69 42 -42 77
-52 125 -33 41 15 82 68 82 105 0 39 -30 93 -61 108 -36 19 -86 18 -121 -1z
m96 -35 c46 -21 53 -94 13 -128 -9 -7 -32 -11 -53 -9 -70 6 -95 77 -44 128 23
23 48 25 84 9z"/>
<path d="M3594 2286 c-28 -28 -34 -42 -34 -76 0 -108 110 -165 194 -99 47 37
19 70 -28 34 -27 -21 -79 -19 -99 3 -10 10 -17 21 -17 25 0 3 42 8 93 9 l92 3
-2 35 c-2 53 -58 100 -119 100 -39 0 -51 -5 -80 -34z m134 -33 l27 -28 -43 -3
c-23 -2 -59 -2 -80 0 l-37 3 27 28 c16 15 38 27 53 27 15 0 37 -12 53 -27z"/>
<path d="M1486 1604 c-9 -22 -9 -22 22 -39 l27 -15 -29 6 c-22 5 -28 4 -24 -7
3 -8 19 -14 39 -14 28 0 35 4 37 23 2 13 -2 22 -10 22 -10 0 -10 2 1 9 20 13
4 31 -29 31 -16 0 -30 -7 -34 -16z"/>
<path d="M1619 1599 c-17 -33 3 -69 39 -69 33 0 52 16 52 45 0 29 -19 45 -52
45 -18 0 -31 -7 -39 -21z m58 -33 c-4 -9 -13 -13 -22 -10 -18 7 -20 31 -2 37
17 6 31 -9 24 -27z"/>
<path d="M1760 1575 c0 -33 4 -45 15 -45 8 0 15 9 15 20 0 11 7 20 15 20 21 0
19 18 -2 23 -17 4 -17 5 0 6 30 2 18 21 -13 21 -29 0 -30 -2 -30 -45z"/>
<path d="M1870 1610 c0 -5 7 -10 15 -10 10 0 15 -11 15 -35 0 -24 5 -35 15
-35 10 0 15 11 15 35 0 19 5 35 10 35 6 0 10 5 10 10 0 6 -18 10 -40 10 -22 0
-40 -4 -40 -10z"/>
<path d="M1993 1603 c3 -10 8 -31 11 -46 8 -35 37 -33 46 3 l6 25 7 -27 c4
-16 14 -28 22 -28 8 0 17 12 21 28 3 15 8 35 11 45 5 20 -22 24 -31 5 -5 -10
-7 -10 -12 0 -3 6 -12 12 -19 12 -7 0 -16 -6 -19 -12 -5 -10 -7 -10 -12 0 -9
19 -36 15 -31 -5z"/>
<path d="M2181 1578 c-10 -24 -17 -45 -15 -47 2 -2 16 2 31 10 20 11 27 11 30
2 3 -7 11 -13 18 -13 11 0 11 8 -3 45 -9 25 -22 45 -30 45 -7 0 -21 -19 -31
-42z"/>
<path d="M2310 1575 c0 -43 12 -60 23 -32 4 10 6 10 6 0 1 -7 11 -13 22 -13
18 0 19 3 10 14 -8 10 -9 21 -3 33 14 27 4 43 -29 43 -28 0 -29 -2 -29 -45z
m40 15 c0 -5 -4 -10 -10 -10 -5 0 -10 5 -10 10 0 6 5 10 10 10 6 0 10 -4 10
-10z"/>
<path d="M2430 1575 c0 -43 1 -45 30 -45 17 0 30 5 30 10 0 6 -7 10 -15 10 -8
0 -15 5 -15 10 0 6 7 10 15 10 21 0 19 18 -2 23 -17 4 -17 5 0 6 30 2 18 21
-13 21 -29 0 -30 -2 -30 -45z"/>
<path d="M2620 1575 c0 -43 1 -45 30 -45 17 0 30 5 30 10 0 6 -7 10 -15 10 -8
0 -15 5 -15 10 0 6 7 10 15 10 21 0 19 18 -2 23 -17 4 -17 5 0 6 30 2 18 21
-13 21 -29 0 -30 -2 -30 -45z"/>
<path d="M2740 1575 c0 -33 4 -45 15 -45 8 0 15 8 15 18 1 16 1 16 11 0 20
-35 39 -21 39 27 0 33 -4 45 -15 45 -8 0 -15 -8 -15 -17 -1 -17 -1 -17 -11 0
-20 34 -39 20 -39 -28z"/>
<path d="M2886 1604 c-9 -8 -16 -22 -16 -29 0 -36 62 -59 88 -33 20 20 14 38
-14 38 -20 0 -25 -4 -20 -16 4 -10 1 -14 -6 -12 -7 3 -13 13 -13 24 0 16 6 18
34 16 31 -3 33 -2 22 12 -17 20 -55 21 -75 0z"/>
<path d="M3030 1575 c0 -25 5 -45 10 -45 6 0 10 20 10 45 0 25 -4 45 -10 45
-5 0 -10 -20 -10 -45z"/>
<path d="M3110 1575 c0 -33 4 -45 15 -45 8 0 15 8 15 18 1 16 1 16 11 0 20
-35 39 -21 39 27 0 33 -4 45 -15 45 -8 0 -15 -8 -15 -17 -1 -17 -1 -17 -11 0
-20 34 -39 20 -39 -28z"/>
<path d="M3240 1575 c0 -43 1 -45 30 -45 17 0 30 5 30 10 0 6 -7 10 -15 10 -8
0 -15 5 -15 10 0 6 7 10 15 10 21 0 19 18 -2 23 -17 4 -17 5 0 6 30 2 18 21
-13 21 -29 0 -30 -2 -30 -45z"/>
<path d="M3360 1575 c0 -43 1 -45 30 -45 17 0 30 5 30 10 0 6 -7 10 -15 10 -8
0 -15 5 -15 10 0 6 7 10 15 10 21 0 19 18 -2 23 -17 4 -17 5 0 6 30 2 18 21
-13 21 -29 0 -30 -2 -30 -45z"/>
<path d="M3480 1575 c0 -43 12 -60 23 -32 4 10 6 10 6 0 1 -7 11 -13 22 -13
18 0 19 3 10 14 -8 10 -9 21 -3 33 14 27 4 43 -29 43 -28 0 -29 -2 -29 -45z
m40 15 c0 -5 -4 -10 -10 -10 -5 0 -10 5 -10 10 0 6 5 10 10 10 6 0 10 -4 10
-10z"/>
</g>
</svg>
