<svg xmlns="http://www.w3.org/2000/svg" width="1440" height="900"><path d="M660,476L546,475L620,586Z" fill="#3e7dff" stroke="#3e7dff" stroke-width="1.51"/><path d="M546,475L585,589L620,586Z" fill="#3f85ff" stroke="#3f85ff" stroke-width="1.51"/><path d="M546,475L455,560L585,589Z" fill="#3e89ff" stroke="#3e89ff" stroke-width="1.51"/><path d="M463,490L455,560L546,475Z" fill="#3f88ff" stroke="#3f88ff" stroke-width="1.51"/><path d="M585,589L585,692L620,586Z" fill="#3e8dff" stroke="#3e8dff" stroke-width="1.51"/><path d="M620,586L811,609L660,476Z" fill="#3d7bff" stroke="#3d7bff" stroke-width="1.51"/><path d="M455,560L585,692L585,589Z" fill="#3e92ff" stroke="#3e92ff" stroke-width="1.51"/><path d="M585,692L639,712L620,586Z" fill="#3e92ff" stroke="#3e92ff" stroke-width="1.51"/><path d="M660,476L512,340L546,475Z" fill="#3d7bff" stroke="#3d7bff" stroke-width="1.51"/><path d="M546,475L512,340L463,490Z" fill="#3e81ff" stroke="#3e81ff" stroke-width="1.51"/><path d="M639,712L774,657L620,586Z" fill="#3e8aff" stroke="#3e8aff" stroke-width="1.51"/><path d="M774,657L811,609L620,586Z" fill="#3e82ff" stroke="#3e82ff" stroke-width="1.51"/><path d="M660,476L699,298L512,340Z" fill="#3e7fff" stroke="#3e7fff" stroke-width="1.51"/><path d="M811,609L813,423L660,476Z" fill="#3b74ff" stroke="#3b74ff" stroke-width="1.51"/><path d="M512,340L463,324L463,490Z" fill="#3f8bff" stroke="#3f8bff" stroke-width="1.51"/><path d="M315,524L400,668L455,560Z" fill="#3d9cff" stroke="#3d9cff" stroke-width="1.51"/><path d="M527,211L463,324L512,340Z" fill="#3f98ff" stroke="#3f98ff" stroke-width="1.51"/><path d="M813,423L699,298L660,476Z" fill="#3b72ff" stroke="#3b72ff" stroke-width="1.51"/><path d="M455,560L400,668L585,692Z" fill="#3d9bff" stroke="#3d9bff" stroke-width="1.51"/><path d="M510,818L682,792L639,712Z" fill="#429eff" stroke="#429eff" stroke-width="1.51"/><path d="M315,524L455,560L463,490Z" fill="#3f92ff" stroke="#3f92ff" stroke-width="1.51"/><path d="M811,609L869,462L813,423Z" fill="#3d7aff" stroke="#3d7aff" stroke-width="1.51"/><path d="M813,423L820,319L699,298Z" fill="#3e7fff" stroke="#3e7fff" stroke-width="1.51"/><path d="M400,668L471,759L585,692Z" fill="#3da3ff" stroke="#3da3ff" stroke-width="1.51"/><path d="M639,712L682,792L774,657Z" fill="#4190ff" stroke="#4190ff" stroke-width="1.51"/><path d="M920,643L920,580L811,609Z" fill="#3e8eff" stroke="#3e8eff" stroke-width="1.51"/><path d="M510,818L639,712L585,692Z" fill="#409eff" stroke="#409eff" stroke-width="1.51"/><path d="M346,377L323,453L463,490Z" fill="#3f8cff" stroke="#3f8cff" stroke-width="1.51"/><path d="M323,453L315,524L463,490Z" fill="#3f91ff" stroke="#3f91ff" stroke-width="1.51"/><path d="M463,324L346,377L463,490Z" fill="#3f8fff" stroke="#3f8fff" stroke-width="1.51"/><path d="M890,356L820,319L813,423Z" fill="#3e82ff" stroke="#3e82ff" stroke-width="1.51"/><path d="M699,298L662,227L512,340Z" fill="#3f8cff" stroke="#3f8cff" stroke-width="1.51"/><path d="M463,324L307,243L346,377Z" fill="#3da0ff" stroke="#3da0ff" stroke-width="1.51"/><path d="M750,202L662,227L699,298Z" fill="#3f8bff" stroke="#3f8bff" stroke-width="1.51"/><path d="M400,668L333,673L471,759Z" fill="#3aaaff" stroke="#3aaaff" stroke-width="1.51"/><path d="M315,524L333,673L400,668Z" fill="#3ba4ff" stroke="#3ba4ff" stroke-width="1.51"/><path d="M471,759L510,818L585,692Z" fill="#40a5ff" stroke="#40a5ff" stroke-width="1.51"/><path d="M420,939L510,818L471,759Z" fill="#40b3ff" stroke="#40b3ff" stroke-width="1.51"/><path d="M662,227L527,211L512,340Z" fill="#3f96ff" stroke="#3f96ff" stroke-width="1.51"/><path d="M811,609L920,580L869,462Z" fill="#3e84ff" stroke="#3e84ff" stroke-width="1.51"/><path d="M869,462L890,356L813,423Z" fill="#3d7bff" stroke="#3d7bff" stroke-width="1.51"/><path d="M920,643L811,609L774,657Z" fill="#3d8dff" stroke="#3d8dff" stroke-width="1.51"/><path d="M820,319L750,202L699,298Z" fill="#3f88ff" stroke="#3f88ff" stroke-width="1.51"/><path d="M1002,480L890,356L869,462Z" fill="#3d7eff" stroke="#3d7eff" stroke-width="1.51"/><path d="M527,211L462,212L463,324Z" fill="#3da0ff" stroke="#3da0ff" stroke-width="1.51"/><path d="M884,789L920,643L774,657Z" fill="#3e98ff" stroke="#3e98ff" stroke-width="1.51"/><path d="M662,227L564,124L527,211Z" fill="#3e97ff" stroke="#3e97ff" stroke-width="1.51"/><path d="M527,211L564,124L462,212Z" fill="#3d9eff" stroke="#3d9eff" stroke-width="1.51"/><path d="M850,236L750,202L820,319Z" fill="#3f90ff" stroke="#3f90ff" stroke-width="1.51"/><path d="M890,356L850,236L820,319Z" fill="#3f8cff" stroke="#3f8cff" stroke-width="1.51"/><path d="M682,792L808,836L774,657Z" fill="#4295ff" stroke="#4295ff" stroke-width="1.51"/><path d="M682,926L808,836L682,792Z" fill="#469cff" stroke="#469cff" stroke-width="1.51"/><path d="M510,818L559,904L682,792Z" fill="#44a7ff" stroke="#44a7ff" stroke-width="1.51"/><path d="M420,939L559,904L510,818Z" fill="#42b5ff" stroke="#42b5ff" stroke-width="1.51"/><path d="M808,836L884,789L774,657Z" fill="#429bff" stroke="#429bff" stroke-width="1.51"/><path d="M669,121L564,124L662,227Z" fill="#3e91ff" stroke="#3e91ff" stroke-width="1.51"/><path d="M669,121L662,227L750,202Z" fill="#3f8cff" stroke="#3f8cff" stroke-width="1.51"/><path d="M1003,602L1002,480L920,580Z" fill="#3e8eff" stroke="#3e8eff" stroke-width="1.51"/><path d="M920,580L1002,480L869,462Z" fill="#3e84ff" stroke="#3e84ff" stroke-width="1.51"/><path d="M890,356L1001,325L850,236Z" fill="#3f91ff" stroke="#3f91ff" stroke-width="1.51"/><path d="M1003,602L920,580L920,643Z" fill="#3d94ff" stroke="#3d94ff" stroke-width="1.51"/><path d="M820,131L669,121L750,202Z" fill="#3e8aff" stroke="#3e8aff" stroke-width="1.51"/><path d="M346,377L236,348L323,453Z" fill="#3e93ff" stroke="#3e93ff" stroke-width="1.51"/><path d="M182,441L177,519L315,524Z" fill="#3e8dff" stroke="#3e8dff" stroke-width="1.51"/><path d="M462,212L307,243L463,324Z" fill="#3ca4ff" stroke="#3ca4ff" stroke-width="1.51"/><path d="M389,69L307,243L462,212Z" fill="#3aa9ff" stroke="#3aa9ff" stroke-width="1.51"/><path d="M307,243L236,348L346,377Z" fill="#3d9eff" stroke="#3d9eff" stroke-width="1.51"/><path d="M315,524L239,695L333,673Z" fill="#3ba3ff" stroke="#3ba3ff" stroke-width="1.51"/><path d="M333,673L271,830L471,759Z" fill="#3ab4ff" stroke="#3ab4ff" stroke-width="1.51"/><path d="M177,519L239,695L315,524Z" fill="#3c9aff" stroke="#3c9aff" stroke-width="1.51"/><path d="M976,695L1003,602L920,643Z" fill="#3c9aff" stroke="#3c9aff" stroke-width="1.51"/><path d="M884,789L976,695L920,643Z" fill="#3e9fff" stroke="#3e9fff" stroke-width="1.51"/><path d="M808,836L917,900L884,789Z" fill="#44a8ff" stroke="#44a8ff" stroke-width="1.51"/><path d="M559,904L682,926L682,792Z" fill="#46a6ff" stroke="#46a6ff" stroke-width="1.51"/><path d="M182,441L315,524L323,453Z" fill="#3e8cff" stroke="#3e8cff" stroke-width="1.51"/><path d="M236,348L182,441L323,453Z" fill="#3e8dff" stroke="#3e8dff" stroke-width="1.51"/><path d="M850,236L820,131L750,202Z" fill="#3e92ff" stroke="#3e92ff" stroke-width="1.51"/><path d="M1002,480L1001,325L890,356Z" fill="#3e89ff" stroke="#3e89ff" stroke-width="1.51"/><path d="M1017,225L1001,325L1159,357Z" fill="#3c9eff" stroke="#3c9eff" stroke-width="1.51"/><path d="M936,110L820,131L850,236Z" fill="#3d95ff" stroke="#3d95ff" stroke-width="1.51"/><path d="M682,926L769,931L808,836Z" fill="#48a4ff" stroke="#48a4ff" stroke-width="1.51"/><path d="M884,789L992,799L976,695Z" fill="#3ea6ff" stroke="#3ea6ff" stroke-width="1.51"/><path d="M239,695L271,830L333,673Z" fill="#3aaeff" stroke="#3aaeff" stroke-width="1.51"/><path d="M158,760L271,830L239,695Z" fill="#3bafff" stroke="#3bafff" stroke-width="1.51"/><path d="M271,830L420,939L471,759Z" fill="#3cbbff" stroke="#3cbbff" stroke-width="1.51"/><path d="M559,904L620,994L682,926Z" fill="#46abff" stroke="#46abff" stroke-width="1.51"/><path d="M682,926L758,1041L769,931Z" fill="#48a3ff" stroke="#48a3ff" stroke-width="1.51"/><path d="M560,1022L620,994L559,904Z" fill="#45afff" stroke="#45afff" stroke-width="1.51"/><path d="M917,900L992,799L884,789Z" fill="#41abff" stroke="#41abff" stroke-width="1.51"/><path d="M976,695L1116,677L1003,602Z" fill="#3ba2ff" stroke="#3ba2ff" stroke-width="1.51"/><path d="M177,519L121,710L239,695Z" fill="#3aa0ff" stroke="#3aa0ff" stroke-width="1.51"/><path d="M107,433L108,533L177,519Z" fill="#3d8aff" stroke="#3d8aff" stroke-width="1.51"/><path d="M107,433L177,519L182,441Z" fill="#3d86ff" stroke="#3d86ff" stroke-width="1.51"/><path d="M107,433L182,441L236,348Z" fill="#3d8cff" stroke="#3d8cff" stroke-width="1.51"/><path d="M985,902L917,900L915,1004Z" fill="#43b4ff" stroke="#43b4ff" stroke-width="1.51"/><path d="M769,931L917,900L808,836Z" fill="#46aaff" stroke="#46aaff" stroke-width="1.51"/><path d="M564,124L389,69L462,212Z" fill="#3c9fff" stroke="#3c9fff" stroke-width="1.51"/><path d="M307,243L227,186L236,348Z" fill="#3ba6ff" stroke="#3ba6ff" stroke-width="1.51"/><path d="M506,-40L389,69L564,124Z" fill="#3c98ff" stroke="#3c98ff" stroke-width="1.51"/><path d="M506,-40L564,124L678,-48Z" fill="#3c8cff" stroke="#3c8cff" stroke-width="1.51"/><path d="M294,58L227,186L307,243Z" fill="#39a7ff" stroke="#39a7ff" stroke-width="1.51"/><path d="M59,310L107,433L236,348Z" fill="#3d91ff" stroke="#3d91ff" stroke-width="1.51"/><path d="M915,1004L917,900L769,931Z" fill="#45aeff" stroke="#45aeff" stroke-width="1.51"/><path d="M420,939L560,1022L559,904Z" fill="#43b5ff" stroke="#43b5ff" stroke-width="1.51"/><path d="M271,830L347,957L420,939Z" fill="#3bc3ff" stroke="#3bc3ff" stroke-width="1.51"/><path d="M121,710L158,760L239,695Z" fill="#3aa9ff" stroke="#3aa9ff" stroke-width="1.51"/><path d="M1001,325L1017,225L850,236Z" fill="#3d9cff" stroke="#3d9cff" stroke-width="1.51"/><path d="M1155,448L1001,325L1002,480Z" fill="#3e8bff" stroke="#3e8bff" stroke-width="1.51"/><path d="M420,939L412,999L560,1022Z" fill="#41baff" stroke="#41baff" stroke-width="1.51"/><path d="M157,937L347,957L271,830Z" fill="#3cc0ff" stroke="#3cc0ff" stroke-width="1.51"/><path d="M347,957L412,999L420,939Z" fill="#3dc1ff" stroke="#3dc1ff" stroke-width="1.51"/><path d="M108,533L121,710L177,519Z" fill="#3c97ff" stroke="#3c97ff" stroke-width="1.51"/><path d="M1017,225L936,110L850,236Z" fill="#3d9dff" stroke="#3d9dff" stroke-width="1.51"/><path d="M820,131L804,16L669,121Z" fill="#3c88ff" stroke="#3c88ff" stroke-width="1.51"/><path d="M1003,602L1151,547L1002,480Z" fill="#3d93ff" stroke="#3d93ff" stroke-width="1.51"/><path d="M992,799L1116,677L976,695Z" fill="#3ba9ff" stroke="#3ba9ff" stroke-width="1.51"/><path d="M1157,813L1116,677L992,799Z" fill="#3ab2ff" stroke="#3ab2ff" stroke-width="1.51"/><path d="M936,110L804,16L820,131Z" fill="#3c90ff" stroke="#3c90ff" stroke-width="1.51"/><path d="M917,900L985,902L992,799Z" fill="#41b3ff" stroke="#41b3ff" stroke-width="1.51"/><path d="M758,1041L682,926L620,994Z" fill="#48a5ff" stroke="#48a5ff" stroke-width="1.51"/><path d="M227,186L125,256L236,348Z" fill="#3ba2ff" stroke="#3ba2ff" stroke-width="1.51"/><path d="M120,116L125,256L227,186Z" fill="#39a4ff" stroke="#39a4ff" stroke-width="1.51"/><path d="M560,1022L758,1041L620,994Z" fill="#47a8ff" stroke="#47a8ff" stroke-width="1.51"/><path d="M1116,677L1151,547L1003,602Z" fill="#3ba0ff" stroke="#3ba0ff" stroke-width="1.51"/><path d="M389,69L294,58L307,243Z" fill="#39a7ff" stroke="#39a7ff" stroke-width="1.51"/><path d="M332,-38L294,58L389,69Z" fill="#39a2ff" stroke="#39a2ff" stroke-width="1.51"/><path d="M1151,547L1155,448L1002,480Z" fill="#3e90ff" stroke="#3e90ff" stroke-width="1.51"/><path d="M678,-48L564,124L669,121Z" fill="#3d8aff" stroke="#3d8aff" stroke-width="1.51"/><path d="M158,760L157,937L271,830Z" fill="#3cb7ff" stroke="#3cb7ff" stroke-width="1.51"/><path d="M121,710L92,762L158,760Z" fill="#3baaff" stroke="#3baaff" stroke-width="1.51"/><path d="M14,755L92,762L121,710Z" fill="#3ba8ff" stroke="#3ba8ff" stroke-width="1.51"/><path d="M14,755L121,710L-68,689Z" fill="#3aa3ff" stroke="#3aa3ff" stroke-width="1.51"/><path d="M804,16L678,-48L669,121Z" fill="#3b81ff" stroke="#3b81ff" stroke-width="1.51"/><path d="M936,110L924,-36L804,16Z" fill="#3c8fff" stroke="#3c8fff" stroke-width="1.51"/><path d="M804,16L708,-121L678,-48Z" fill="#3b7fff" stroke="#3b7fff" stroke-width="1.51"/><path d="M1017,225L977,81L936,110Z" fill="#3b9dff" stroke="#3b9dff" stroke-width="1.51"/><path d="M1129,99L977,81L1017,225Z" fill="#3aa3ff" stroke="#3aa3ff" stroke-width="1.51"/><path d="M758,1041L915,1004L769,931Z" fill="#46a9ff" stroke="#46a9ff" stroke-width="1.51"/><path d="M1155,448L1159,357L1001,325Z" fill="#3e96ff" stroke="#3e96ff" stroke-width="1.51"/><path d="M1207,336L1159,357L1155,448Z" fill="#419aff" stroke="#419aff" stroke-width="1.51"/><path d="M-61,451L-58,576L108,533Z" fill="#3b88ff" stroke="#3b88ff" stroke-width="1.51"/><path d="M125,256L59,310L236,348Z" fill="#3c9bff" stroke="#3c9bff" stroke-width="1.51"/><path d="M-31,204L59,310L125,256Z" fill="#3b9eff" stroke="#3b9eff" stroke-width="1.51"/><path d="M565,-111L439,-53L506,-40Z" fill="#3c93ff" stroke="#3c93ff" stroke-width="1.51"/><path d="M506,-40L439,-53L389,69Z" fill="#3b99ff" stroke="#3b99ff" stroke-width="1.51"/><path d="M1151,547L1200,534L1155,448Z" fill="#4097ff" stroke="#4097ff" stroke-width="1.51"/><path d="M1204,668L1200,534L1151,547Z" fill="#3fa3ff" stroke="#3fa3ff" stroke-width="1.51"/><path d="M1204,668L1151,547L1116,677Z" fill="#3ca7ff" stroke="#3ca7ff" stroke-width="1.51"/><path d="M169,-9L169,88L294,58Z" fill="#399eff" stroke="#399eff" stroke-width="1.51"/><path d="M294,58L169,88L227,186Z" fill="#39a3ff" stroke="#39a3ff" stroke-width="1.51"/><path d="M57,867L157,937L158,760Z" fill="#3db6ff" stroke="#3db6ff" stroke-width="1.51"/><path d="M347,957L277,1061L412,999Z" fill="#3bc3ff" stroke="#3bc3ff" stroke-width="1.51"/><path d="M1200,534L1214,483L1155,448Z" fill="#4196ff" stroke="#4196ff" stroke-width="1.51"/><path d="M439,-53L332,-38L389,69Z" fill="#3a9eff" stroke="#3a9eff" stroke-width="1.51"/><path d="M1200,534L1323,554L1214,483Z" fill="#429eff" stroke="#429eff" stroke-width="1.51"/><path d="M1157,813L1204,668L1116,677Z" fill="#3ab2ff" stroke="#3ab2ff" stroke-width="1.51"/><path d="M1157,813L992,799L985,902Z" fill="#3db6ff" stroke="#3db6ff" stroke-width="1.51"/><path d="M59,310L-3,357L107,433Z" fill="#3c8dff" stroke="#3c8dff" stroke-width="1.51"/><path d="M-31,204L-3,357L59,310Z" fill="#3b97ff" stroke="#3b97ff" stroke-width="1.51"/><path d="M169,88L120,116L227,186Z" fill="#39a1ff" stroke="#39a1ff" stroke-width="1.51"/><path d="M133,-27L120,116L169,88Z" fill="#399cff" stroke="#399cff" stroke-width="1.51"/><path d="M1132,942L1157,813L985,902Z" fill="#3bc0ff" stroke="#3bc0ff" stroke-width="1.51"/><path d="M678,-48L565,-111L506,-40Z" fill="#3c8cff" stroke="#3c8cff" stroke-width="1.51"/><path d="M439,-53L360,-85L332,-38Z" fill="#399fff" stroke="#399fff" stroke-width="1.51"/><path d="M708,-121L565,-111L678,-48Z" fill="#3b85ff" stroke="#3b85ff" stroke-width="1.51"/><path d="M1214,483L1207,336L1155,448Z" fill="#4295ff" stroke="#4295ff" stroke-width="1.51"/><path d="M1159,357L1141,173L1017,225Z" fill="#3aa9ff" stroke="#3aa9ff" stroke-width="1.51"/><path d="M181,1002L277,1061L347,957Z" fill="#3cc0ff" stroke="#3cc0ff" stroke-width="1.51"/><path d="M412,999L277,1061L560,1022Z" fill="#3ebeff" stroke="#3ebeff" stroke-width="1.51"/><path d="M560,1022L277,1061L758,1041Z" fill="#43b3ff" stroke="#43b3ff" stroke-width="1.51"/><path d="M-58,576L121,710L108,533Z" fill="#3b96ff" stroke="#3b96ff" stroke-width="1.51"/><path d="M92,762L57,867L158,760Z" fill="#3caeff" stroke="#3caeff" stroke-width="1.51"/><path d="M1207,336L1141,173L1159,357Z" fill="#3da7ff" stroke="#3da7ff" stroke-width="1.51"/><path d="M994,-13L924,-36L977,81Z" fill="#3b94ff" stroke="#3b94ff" stroke-width="1.51"/><path d="M977,81L924,-36L936,110Z" fill="#3b95ff" stroke="#3b95ff" stroke-width="1.51"/><path d="M124,1044L181,1002L157,937Z" fill="#3dbcff" stroke="#3dbcff" stroke-width="1.51"/><path d="M157,937L181,1002L347,957Z" fill="#3cbfff" stroke="#3cbfff" stroke-width="1.51"/><path d="M740,-158L708,-121L875,-117Z" fill="#3b83ff" stroke="#3b83ff" stroke-width="1.51"/><path d="M14,755L57,867L92,762Z" fill="#3dacff" stroke="#3dacff" stroke-width="1.51"/><path d="M332,-38L169,-9L294,58Z" fill="#399dff" stroke="#399dff" stroke-width="1.51"/><path d="M394,-149L360,-85L439,-53Z" fill="#3a9dff" stroke="#3a9dff" stroke-width="1.51"/><path d="M915,1004L974,1057L985,902Z" fill="#41b6ff" stroke="#41b6ff" stroke-width="1.51"/><path d="M758,1041L974,1057L915,1004Z" fill="#45afff" stroke="#45afff" stroke-width="1.51"/><path d="M277,1061L974,1057L758,1041Z" fill="#47a6ff" stroke="#47a6ff" stroke-width="1.51"/><path d="M875,-117L708,-121L804,16Z" fill="#3b85ff" stroke="#3b85ff" stroke-width="1.51"/><path d="M1124,-9L994,-13L977,81Z" fill="#3a9aff" stroke="#3a9aff" stroke-width="1.51"/><path d="M-61,451L108,533L107,433Z" fill="#3c83ff" stroke="#3c83ff" stroke-width="1.51"/><path d="M14,755L-6,888L57,867Z" fill="#3eb0ff" stroke="#3eb0ff" stroke-width="1.51"/><path d="M-3,357L-61,451L107,433Z" fill="#3b85ff" stroke="#3b85ff" stroke-width="1.51"/><path d="M-153,479L-61,451L-136,304Z" fill="#3b84ff" stroke="#3b84ff" stroke-width="1.51"/><path d="M1141,173L1129,99L1017,225Z" fill="#39a9ff" stroke="#39a9ff" stroke-width="1.51"/><path d="M1260,96L1129,99L1141,173Z" fill="#3babff" stroke="#3babff" stroke-width="1.51"/><path d="M1331,702L1323,554L1204,668Z" fill="#3db1ff" stroke="#3db1ff" stroke-width="1.51"/><path d="M1140,982L1132,942L985,902Z" fill="#3bc1ff" stroke="#3bc1ff" stroke-width="1.51"/><path d="M120,116L-31,204L125,256Z" fill="#39a2ff" stroke="#39a2ff" stroke-width="1.51"/><path d="M198,-145L169,-9L332,-38Z" fill="#399cff" stroke="#399cff" stroke-width="1.51"/><path d="M875,-117L804,16L924,-36Z" fill="#3b8bff" stroke="#3b8bff" stroke-width="1.51"/><path d="M708,-121L740,-158L565,-111Z" fill="#3b83ff" stroke="#3b83ff" stroke-width="1.51"/><path d="M565,-111L394,-149L439,-53Z" fill="#3b97ff" stroke="#3b97ff" stroke-width="1.51"/><path d="M1036,-140L875,-117L924,-36Z" fill="#3b92ff" stroke="#3b92ff" stroke-width="1.51"/><path d="M1036,-140L924,-36L994,-13Z" fill="#3b95ff" stroke="#3b95ff" stroke-width="1.51"/><path d="M-58,576L-68,689L121,710Z" fill="#399bff" stroke="#399bff" stroke-width="1.51"/><path d="M-154,651L-68,689L-58,576Z" fill="#3a98ff" stroke="#3a98ff" stroke-width="1.51"/><path d="M198,-145L133,-27L169,-9Z" fill="#399aff" stroke="#399aff" stroke-width="1.51"/><path d="M740,-158L394,-149L565,-111Z" fill="#3c8dff" stroke="#3c8dff" stroke-width="1.51"/><path d="M-38,95L-31,204L120,116Z" fill="#399cff" stroke="#399cff" stroke-width="1.51"/><path d="M1255,864L1280,773L1157,813Z" fill="#3bc1ff" stroke="#3bc1ff" stroke-width="1.51"/><path d="M974,1057L1140,982L985,902Z" fill="#3ebcff" stroke="#3ebcff" stroke-width="1.51"/><path d="M-6,888L124,1044L57,867Z" fill="#3fb8ff" stroke="#3fb8ff" stroke-width="1.51"/><path d="M57,867L124,1044L157,937Z" fill="#3ebaff" stroke="#3ebaff" stroke-width="1.51"/><path d="M181,1002L124,1044L277,1061Z" fill="#3dbdff" stroke="#3dbdff" stroke-width="1.51"/><path d="M-100,885L-6,888L14,755Z" fill="#3eafff" stroke="#3eafff" stroke-width="1.51"/><path d="M169,-9L133,-27L169,88Z" fill="#399aff" stroke="#399aff" stroke-width="1.51"/><path d="M198,-145L332,-38L360,-85Z" fill="#399eff" stroke="#399eff" stroke-width="1.51"/><path d="M1204,668L1323,554L1200,534Z" fill="#40a6ff" stroke="#40a6ff" stroke-width="1.51"/><path d="M1214,483L1334,423L1207,336Z" fill="#439aff" stroke="#439aff" stroke-width="1.51"/><path d="M1207,336L1271,228L1141,173Z" fill="#3bb1ff" stroke="#3bb1ff" stroke-width="1.51"/><path d="M1280,773L1204,668L1157,813Z" fill="#3bb9ff" stroke="#3bb9ff" stroke-width="1.51"/><path d="M1255,864L1157,813L1132,942Z" fill="#3cc4ff" stroke="#3cc4ff" stroke-width="1.51"/><path d="M1337,356L1271,228L1207,336Z" fill="#40acff" stroke="#40acff" stroke-width="1.51"/><path d="M-156,776L-100,885L14,755Z" fill="#3dabff" stroke="#3dabff" stroke-width="1.51"/><path d="M-61,451L-129,564L-58,576Z" fill="#3b8aff" stroke="#3b8aff" stroke-width="1.51"/><path d="M-153,479L-129,564L-61,451Z" fill="#3b85ff" stroke="#3b85ff" stroke-width="1.51"/><path d="M1323,554L1334,423L1214,483Z" fill="#449cff" stroke="#449cff" stroke-width="1.51"/><path d="M1140,982L1255,864L1132,942Z" fill="#3bc7ff" stroke="#3bc7ff" stroke-width="1.51"/><path d="M1260,96L1124,-9L1129,99Z" fill="#3ba7ff" stroke="#3ba7ff" stroke-width="1.51"/><path d="M1129,99L1124,-9L977,81Z" fill="#39a0ff" stroke="#39a0ff" stroke-width="1.51"/><path d="M1323,554L1458,492L1334,423Z" fill="#46a2ff" stroke="#46a2ff" stroke-width="1.51"/><path d="M1280,773L1331,702L1204,668Z" fill="#3bb9ff" stroke="#3bb9ff" stroke-width="1.51"/><path d="M1361,776L1331,702L1280,773Z" fill="#3bc0ff" stroke="#3bc0ff" stroke-width="1.51"/><path d="M1334,423L1337,356L1207,336Z" fill="#43a3ff" stroke="#43a3ff" stroke-width="1.51"/><path d="M1450,363L1337,356L1334,423Z" fill="#45a7ff" stroke="#45a7ff" stroke-width="1.51"/><path d="M-136,304L-61,451L-3,357Z" fill="#3c8bff" stroke="#3c8bff" stroke-width="1.51"/><path d="M-31,204L-136,304L-3,357Z" fill="#3b97ff" stroke="#3b97ff" stroke-width="1.51"/><path d="M-11,-32L-38,95L120,116Z" fill="#3997ff" stroke="#3997ff" stroke-width="1.51"/><path d="M-129,564L-154,651L-58,576Z" fill="#3b93ff" stroke="#3b93ff" stroke-width="1.51"/><path d="M-153,479L-154,651L-129,564Z" fill="#3b8eff" stroke="#3b8eff" stroke-width="1.51"/><path d="M-180,228L-136,304L-31,204Z" fill="#3a9eff" stroke="#3a9eff" stroke-width="1.51"/><path d="M394,-149L198,-145L360,-85Z" fill="#399fff" stroke="#399fff" stroke-width="1.51"/><path d="M133,-27L-11,-32L120,116Z" fill="#3997ff" stroke="#3997ff" stroke-width="1.51"/><path d="M740,-158L198,-145L394,-149Z" fill="#3b99ff" stroke="#3b99ff" stroke-width="1.51"/><path d="M1271,228L1260,96L1141,173Z" fill="#3bb1ff" stroke="#3bb1ff" stroke-width="1.51"/><path d="M1328,202L1260,96L1271,228Z" fill="#3bb6ff" stroke="#3bb6ff" stroke-width="1.51"/><path d="M1120,-133L1036,-140L1124,-9Z" fill="#399eff" stroke="#399eff" stroke-width="1.51"/><path d="M1124,-9L1036,-140L994,-13Z" fill="#399bff" stroke="#399bff" stroke-width="1.51"/><path d="M875,-117L1036,-140L740,-158Z" fill="#3b8dff" stroke="#3b8dff" stroke-width="1.51"/><path d="M1337,356L1328,202L1271,228Z" fill="#3db5ff" stroke="#3db5ff" stroke-width="1.51"/><path d="M-6,888L-66,1004L124,1044Z" fill="#3fb6ff" stroke="#3fb6ff" stroke-width="1.51"/><path d="M-156,776L14,755L-68,689Z" fill="#3ba4ff" stroke="#3ba4ff" stroke-width="1.51"/><path d="M198,-145L83,-83L133,-27Z" fill="#3999ff" stroke="#3999ff" stroke-width="1.51"/><path d="M1255,864L1309,882L1280,773Z" fill="#3bc7ff" stroke="#3bc7ff" stroke-width="1.51"/><path d="M1280,1035L1309,882L1255,864Z" fill="#3aceff" stroke="#3aceff" stroke-width="1.51"/><path d="M1490,557L1458,492L1323,554Z" fill="#45acff" stroke="#45acff" stroke-width="1.51"/><path d="M1309,882L1361,776L1280,773Z" fill="#3bc6ff" stroke="#3bc6ff" stroke-width="1.51"/><path d="M-154,651L-156,776L-68,689Z" fill="#3aa1ff" stroke="#3aa1ff" stroke-width="1.51"/><path d="M-180,228L-156,776L-154,651Z" fill="#3b8dff" stroke="#3b8dff" stroke-width="1.51"/><path d="M83,-83L-11,-32L133,-27Z" fill="#3996ff" stroke="#3996ff" stroke-width="1.51"/><path d="M-145,96L-180,228L-31,204Z" fill="#399eff" stroke="#399eff" stroke-width="1.51"/><path d="M-100,885L-66,1004L-6,888Z" fill="#3fb6ff" stroke="#3fb6ff" stroke-width="1.51"/><path d="M-151,1027L-66,1004L-100,885Z" fill="#3fb6ff" stroke="#3fb6ff" stroke-width="1.51"/><path d="M1209,-84L1124,-9L1258,-45Z" fill="#3ba5ff" stroke="#3ba5ff" stroke-width="1.51"/><path d="M1209,-84L1120,-133L1124,-9Z" fill="#3aa2ff" stroke="#3aa2ff" stroke-width="1.51"/><path d="M-153,479L-180,228L-154,651Z" fill="#3a7fff" stroke="#3a7fff" stroke-width="1.51"/><path d="M-136,304L-180,228L-153,479Z" fill="#3c90ff" stroke="#3c90ff" stroke-width="1.51"/><path d="M-145,96L-31,204L-38,95Z" fill="#399bff" stroke="#399bff" stroke-width="1.51"/><path d="M1309,882L1439,942L1361,776Z" fill="#3ad0ff" stroke="#3ad0ff" stroke-width="1.51"/><path d="M1140,982L1280,1035L1255,864Z" fill="#3bcaff" stroke="#3bcaff" stroke-width="1.51"/><path d="M974,1057L1280,1035L1140,982Z" fill="#3cc4ff" stroke="#3cc4ff" stroke-width="1.51"/><path d="M1258,-45L1124,-9L1260,96Z" fill="#3ba7ff" stroke="#3ba7ff" stroke-width="1.51"/><path d="M1337,356L1438,201L1328,202Z" fill="#3dbaff" stroke="#3dbaff" stroke-width="1.51"/><path d="M1364,-20L1258,-45L1260,96Z" fill="#3dacff" stroke="#3dacff" stroke-width="1.51"/><path d="M1490,557L1323,554L1331,702Z" fill="#41b2ff" stroke="#41b2ff" stroke-width="1.51"/><path d="M1490,557L1331,702L1514,658Z" fill="#3fbbff" stroke="#3fbbff" stroke-width="1.51"/><path d="M-11,-32L-145,96L-38,95Z" fill="#3997ff" stroke="#3997ff" stroke-width="1.51"/><path d="M1458,492L1450,363L1334,423Z" fill="#47a3ff" stroke="#47a3ff" stroke-width="1.51"/><path d="M1373,80L1260,96L1328,202Z" fill="#3cb6ff" stroke="#3cb6ff" stroke-width="1.51"/><path d="M-11,-32L-162,-56L-145,96Z" fill="#3893ff" stroke="#3893ff" stroke-width="1.51"/><path d="M83,-83L-2,-102L-11,-32Z" fill="#3894ff" stroke="#3894ff" stroke-width="1.51"/><path d="M198,-145L-2,-102L83,-83Z" fill="#3997ff" stroke="#3997ff" stroke-width="1.51"/><path d="M1280,1035L1313,1029L1309,882Z" fill="#3acfff" stroke="#3acfff" stroke-width="1.51"/><path d="M1438,201L1373,80L1328,202Z" fill="#3cbcff" stroke="#3cbcff" stroke-width="1.51"/><path d="M1514,658L1331,702L1361,776Z" fill="#3bc2ff" stroke="#3bc2ff" stroke-width="1.51"/><path d="M1458,492L1568,488L1450,363Z" fill="#48a2ff" stroke="#48a2ff" stroke-width="1.51"/><path d="M1450,363L1438,201L1337,356Z" fill="#42b5ff" stroke="#42b5ff" stroke-width="1.51"/><path d="M1468,146L1438,201L1561,289Z" fill="#3bc3ff" stroke="#3bc3ff" stroke-width="1.51"/><path d="M-66,1004L-151,1027L124,1044Z" fill="#3fb6ff" stroke="#3fb6ff" stroke-width="1.51"/><path d="M124,1044L-151,1027L277,1061Z" fill="#3eb9ff" stroke="#3eb9ff" stroke-width="1.51"/><path d="M-156,776L-151,1027L-100,885Z" fill="#3fb5ff" stroke="#3fb5ff" stroke-width="1.51"/><path d="M-180,228L-151,1027L-156,776Z" fill="#399eff" stroke="#399eff" stroke-width="1.51"/><path d="M1490,557L1568,488L1458,492Z" fill="#46aaff" stroke="#46aaff" stroke-width="1.51"/><path d="M1494,833L1514,658L1361,776Z" fill="#3bc9ff" stroke="#3bc9ff" stroke-width="1.51"/><path d="M1373,80L1364,-20L1260,96Z" fill="#3db1ff" stroke="#3db1ff" stroke-width="1.51"/><path d="M1258,-45L1364,-110L1209,-84Z" fill="#3dabff" stroke="#3dabff" stroke-width="1.51"/><path d="M1209,-84L1364,-110L1120,-133Z" fill="#3ca7ff" stroke="#3ca7ff" stroke-width="1.51"/><path d="M1446,24L1364,-20L1373,80Z" fill="#3fb4ff" stroke="#3fb4ff" stroke-width="1.51"/><path d="M1514,658L1537,567L1490,557Z" fill="#42b5ff" stroke="#42b5ff" stroke-width="1.51"/><path d="M1313,1029L1439,942L1309,882Z" fill="#3ad3ff" stroke="#3ad3ff" stroke-width="1.51"/><path d="M1561,289L1438,201L1450,363Z" fill="#40bbff" stroke="#40bbff" stroke-width="1.51"/><path d="M1438,201L1468,146L1373,80Z" fill="#3dbeff" stroke="#3dbeff" stroke-width="1.51"/><path d="M1439,942L1494,833L1361,776Z" fill="#39d3ff" stroke="#39d3ff" stroke-width="1.51"/><path d="M1566,665L1568,488L1537,567Z" fill="#43b2ff" stroke="#43b2ff" stroke-width="1.51"/><path d="M-2,-102L-162,-56L-11,-32Z" fill="#3893ff" stroke="#3893ff" stroke-width="1.51"/><path d="M-145,96L-162,-56L-180,228Z" fill="#3999ff" stroke="#3999ff" stroke-width="1.51"/><path d="M1566,665L1537,567L1514,658Z" fill="#3fbaff" stroke="#3fbaff" stroke-width="1.51"/><path d="M1537,567L1568,488L1490,557Z" fill="#45adff" stroke="#45adff" stroke-width="1.51"/><path d="M1613,749L1566,665L1514,658Z" fill="#3cc2ff" stroke="#3cc2ff" stroke-width="1.51"/><path d="M1468,146L1446,24L1373,80Z" fill="#3dbaff" stroke="#3dbaff" stroke-width="1.51"/><path d="M1541,93L1446,24L1468,146Z" fill="#3ebbff" stroke="#3ebbff" stroke-width="1.51"/><path d="M1439,942L1577,896L1494,833Z" fill="#39d8ff" stroke="#39d8ff" stroke-width="1.51"/><path d="M1494,833L1613,749L1514,658Z" fill="#3bc8ff" stroke="#3bc8ff" stroke-width="1.51"/><path d="M1313,1029L1438,1037L1439,942Z" fill="#39d6ff" stroke="#39d6ff" stroke-width="1.51"/><path d="M1280,1035L1438,1037L1313,1029Z" fill="#3ad2ff" stroke="#3ad2ff" stroke-width="1.51"/><path d="M974,1057L1438,1037L1280,1035Z" fill="#3bcaff" stroke="#3bcaff" stroke-width="1.51"/><path d="M1568,488L1561,289L1450,363Z" fill="#46acff" stroke="#46acff" stroke-width="1.51"/><path d="M1477,-88L1364,-110L1364,-20Z" fill="#3fb3ff" stroke="#3fb3ff" stroke-width="1.51"/><path d="M1364,-20L1364,-110L1258,-45Z" fill="#3eaeff" stroke="#3eaeff" stroke-width="1.51"/><path d="M-2,-102L-170,-127L-162,-56Z" fill="#3893ff" stroke="#3893ff" stroke-width="1.51"/><path d="M-162,-56L-170,-127L-180,228Z" fill="#3894ff" stroke="#3894ff" stroke-width="1.51"/><path d="M198,-145L-170,-127L-2,-102Z" fill="#3894ff" stroke="#3894ff" stroke-width="1.51"/><path d="M1446,24L1477,-88L1364,-20Z" fill="#3fb5ff" stroke="#3fb5ff" stroke-width="1.51"/><path d="M1625,244L1541,93L1468,146Z" fill="#3cc0ff" stroke="#3cc0ff" stroke-width="1.51"/><path d="M1577,896L1613,749L1494,833Z" fill="#3ad1ff" stroke="#3ad1ff" stroke-width="1.51"/><path d="M1566,665L1613,749L1568,488Z" fill="#3fbbff" stroke="#3fbbff" stroke-width="1.51"/><path d="M1568,488L1625,244L1561,289Z" fill="#44b2ff" stroke="#44b2ff" stroke-width="1.51"/><path d="M1561,289L1625,244L1468,146Z" fill="#3bc4ff" stroke="#3bc4ff" stroke-width="1.51"/><path d="M1620,1027L1577,896L1439,942Z" fill="#38d9ff" stroke="#38d9ff" stroke-width="1.51"/><path d="M1613,749L1625,244L1568,488Z" fill="#47a7ff" stroke="#47a7ff" stroke-width="1.51"/><path d="M1541,93L1544,32L1446,24Z" fill="#3eb9ff" stroke="#3eb9ff" stroke-width="1.51"/><path d="M1625,244L1544,32L1541,93Z" fill="#3dbdff" stroke="#3dbdff" stroke-width="1.51"/><path d="M1544,32L1477,-88L1446,24Z" fill="#3fb6ff" stroke="#3fb6ff" stroke-width="1.51"/><path d="M1438,1037L1620,1027L1439,942Z" fill="#38d9ff" stroke="#38d9ff" stroke-width="1.51"/><path d="M1577,896L1620,1027L1613,749Z" fill="#39d8ff" stroke="#39d8ff" stroke-width="1.51"/><path d="M1613,749L1620,1027L1625,244Z" fill="#3bc0ff" stroke="#3bc0ff" stroke-width="1.51"/><path d="M1544,32L1592,-116L1477,-88Z" fill="#3fb6ff" stroke="#3fb6ff" stroke-width="1.51"/><path d="M1477,-88L1592,-116L1364,-110Z" fill="#3fb6ff" stroke="#3fb6ff" stroke-width="1.51"/><path d="M1364,-110L1592,-116L1120,-133Z" fill="#3eb0ff" stroke="#3eb0ff" stroke-width="1.51"/><path d="M1120,-133L1592,-116L1036,-140Z" fill="#3ca9ff" stroke="#3ca9ff" stroke-width="1.51"/><path d="M1036,-140L1592,-116L740,-158Z" fill="#3aa0ff" stroke="#3aa0ff" stroke-width="1.51"/><path d="M1625,244L1592,-116L1544,32Z" fill="#3eb9ff" stroke="#3eb9ff" stroke-width="1.51"/></svg>